<?xml version="1.0" encoding="utf-8"?>
<!-- Generator: Adobe Illustrator 20.1.0, SVG Export Plug-In . SVG Version: 6.00 Build 0)  -->
<svg version="1.1" id="Layer_1" xmlns="http://www.w3.org/2000/svg" xmlns:xlink="http://www.w3.org/1999/xlink" x="0px" y="0px"
	 width="720px" height="720px" viewBox="0 0 720 720" style="enable-background:new 0 0 720 720;" xml:space="preserve">
<style type="text/css">
	.st0{fill:#FFFFFF;}
</style>
<g>
	<path class="st0" d="M456.6,157.8h-195c-26.5,0-51.5,10.4-70.5,29.4s-29.4,44-29.4,70.5v207.8c0,26.5,10.4,51.5,29.4,70.5
		s44,29.4,70.5,29.4h195c26.5,0,51.5-10.4,70.5-29.4s29.4-44,29.4-70.5V257.6c0-26.5-10.4-51.5-29.4-70.5S483.1,157.8,456.6,157.8z
		 M359.8,488.1c-70.9,0-128.4-57.5-128.4-128.4s57.5-128.4,128.4-128.4s128.4,57.5,128.4,128.4S430.7,488.1,359.8,488.1z
		 M490.3,259.6c-16.8,0-30.4-13.6-30.4-30.4c0-16.8,13.6-30.4,30.4-30.4s30.4,13.6,30.4,30.4C520.7,246,507.1,259.6,490.3,259.6z"/>
	<circle class="st0" cx="359.1" cy="359.8" r="84.1"/>
	<path class="st0" d="M541.2,39.9H178.8c-77.1,0-139.6,62.8-139.6,140.3v359.7c0,77.5,62.5,140.3,139.6,140.3h362.4
		c77.1,0,139.6-62.8,139.6-140.3V180.1C680.8,102.7,618.3,39.9,541.2,39.9z M592.3,465.4c0,74.6-61.1,135.7-135.7,135.7h-195
		c-74.6,0-135.7-61.1-135.7-135.7V257.6c0-74.6,61.1-135.7,135.7-135.7h195c74.6,0,135.7,61.1,135.7,135.7V465.4z"/>
</g>
</svg>
