<?xml version="1.0" encoding="utf-8"?>
<!-- Generator: Adobe Illustrator 21.0.0, SVG Export Plug-In . SVG Version: 6.00 Build 0)  -->
<svg version="1.1" id="Layer_1" xmlns="http://www.w3.org/2000/svg" xmlns:xlink="http://www.w3.org/1999/xlink" x="0px" y="0px"
	 width="720px" height="720px" viewBox="0 0 720 720" enable-background="new 0 0 720 720" xml:space="preserve">
<g>
	<path fill="#FFFFFF" d="M468.838,132.178H249.134c-29.857,0-58.024,11.717-79.431,33.124s-33.124,49.574-33.124,79.431v234.125
		c0,29.857,11.717,58.024,33.124,79.431s49.574,33.125,79.431,33.125h219.703c29.857,0,58.024-11.718,79.431-33.125
		c21.407-21.407,33.125-49.574,33.125-79.431V244.621c0-29.857-11.718-58.024-33.125-79.431S498.695,132.178,468.838,132.178z
		 M359.775,504.322c-79.882,0-144.666-64.784-144.666-144.666S279.893,214.99,359.775,214.99s144.666,64.784,144.666,144.666
		S439.656,504.322,359.775,504.322z M506.807,246.875c-18.928,0-34.251-15.323-34.251-34.251c0-18.928,15.323-34.251,34.251-34.251
		c18.928,0,34.251,15.323,34.251,34.251S525.735,246.875,506.807,246.875z"/>
	<circle fill="#FFFFFF" cx="358.986" cy="359.768" r="94.754"/>
	<path fill="#FFFFFF" d="M564.155-0.657h-408.31C68.978-0.657-1.44,70.098-1.44,157.416v405.268
		c0,87.318,70.418,158.074,157.285,158.074h408.31c86.867,0,157.285-70.756,157.285-158.074v-405.38
		C721.44,70.098,651.022-0.657,564.155-0.657z M621.728,478.746c0,84.051-68.84,152.891-152.891,152.891H249.134
		c-84.051,0-152.891-68.84-152.891-152.891V244.621c0-84.051,68.84-152.891,152.891-152.891h219.703
		c84.051,0,152.891,68.84,152.891,152.891V478.746z"/>
</g>
</svg>
