<?xml version="1.0" encoding="utf-8"?>
<!-- Generator: Adobe Illustrator 21.0.0, SVG Export Plug-In . SVG Version: 6.00 Build 0)  -->
<svg version="1.1" id="Слой_1" xmlns="http://www.w3.org/2000/svg" xmlns:xlink="http://www.w3.org/1999/xlink" x="0px" y="0px"
	 width="512px" height="512px" viewBox="0 0 512 512" enable-background="new 0 0 512 512" xml:space="preserve">
<path fill="#FFFFFF" d="M0,256v0.041c0,141.385,114.615,256,256,256H256c141.385,0,256-114.615,256-256V256
	C512,114.615,397.385,0,256,0h-0.001C114.615,0,0,114.615,0,256z M249.154,345.757c-0.219,0.145-0.482,0.227-0.745,0.234
	c-1.018,0.03-2.043,0.069-3.069,0.069c-36.7,0-73.41,0.01-110.12,0c-9.323,0-18.637-0.039-27.96-0.059
	c-0.286-0.001-0.558-0.103-0.799-0.257c-0.192-0.122-0.411-0.161-0.637-0.171c-0.351-0.015-0.664-0.187-0.879-0.465
	c-0.386-0.501-1.009-0.767-1.464-1.199l-0.05-0.08c-0.158-0.187-0.322-0.369-0.48-0.55c-0.121-0.139-0.213-0.3-0.273-0.474
	c-0.564-1.645-0.898-3.321-0.898-5.087c0.02-53.29,0.01-106.58,0.01-159.87c0-2.467-0.078-4.952,0.339-7.397
	c0.048-0.282,0.205-0.529,0.394-0.744c0.186-0.212,0.207-0.507,0.207-0.819v-0.01c0.53-0.58,1.07-1.15,1.6-1.73l0.07-0.07
	c1.79-1,3.72-1.19,5.76-1.19c21.67,0.05,43.34,0.03,65.01,0.04c6.43,0,12.77,0.86,19.04,2.25c8.334,1.845,15.86,5.452,22.902,10.158
	c0.111,0.074,0.211,0.167,0.297,0.27c0.745,0.892,1.593,1.643,2.61,2.201c0.176,0.097,0.329,0.23,0.448,0.392
	c0.693,0.944,1.555,1.71,2.493,2.4l0.17,0.17c11.57,12.94,15.1,28.38,14.15,45.26c-0.053,0.989-0.72,2.013-0.512,3.027
	c0.175,0.854,0.233,1.746,0.039,2.596c-0.054,0.237-0.064,0.483,0.023,0.747c-0.36,0.12-0.48,0.39-0.54,0.74
	c-1.44,8.05-4.63,15.37-9.19,22.12l-0.02,0.04c-0.13,0.2-0.25,0.41-0.37,0.6l-0.01,0.02c-1.908,2.077-3.808,4.161-5.7,6.247
	c-0.391,0.431-0.839,0.809-1.345,1.097c-0.737,0.419-1.341,1-1.845,1.717l-0.01,0.01c-3.66,2.24-7.16,4.75-11.21,6.31
	c-1.54,0.6-0.43,1.25-0.02,1.8c4.07,5.35,8.12,10.72,12.27,16.01c2.29,2.93,4.17,6.2,7.05,8.65c0.02,0.14,0.1,0.22,0.23,0.26
	c1.56,2.27,3.03,4.6,4.68,6.79c6.63,8.74,13.31,17.43,19.97,26.14C254.643,339.008,254.192,342.419,249.154,345.757z
	 M410.151,298.617c-0.233,1.646-0.607,4.289-0.839,5.936c-1.317,4.725-2.694,9.392-5.082,13.747
	c-3.176,5.806-7.692,10.371-12.579,14.653c-0.074,0.065-0.154,0.121-0.24,0.169c-3.071,1.707-5.936,3.78-9.141,5.279
	c-11.2,5.29-23.11,7.47-35.36,7.59c-21.36,0.21-42.71,0.07-64.07,0.07c-3.272,0-6.572,0.311-9.745-0.824
	c-0.188-0.067-0.361-0.178-0.507-0.315c-0.17-0.16-0.339-0.318-0.507-0.476c-0.256-0.24-0.396-0.572-0.431-0.921
	c-0.031-0.307-0.17-0.562-0.424-0.759c-0.204-0.158-0.346-0.392-0.405-0.644c-0.287-1.21-0.421-2.444-0.421-3.701
	c0.02-54.99,0.01-109.98,0.02-164.97c0-5.12,2.4-7.53,7.46-7.53c20.78,0,41.56-0.08,62.33,0.03c15.44,0.08,29.95,3.14,41.83,13.97
	l0.48,0.48v0.01c0.02,0.31,0.17,0.49,0.49,0.52c9.24,10.87,11.98,23.72,11.58,37.59c-0.09,3.14-0.763,6.207-0.941,9.325
	c-0.134,0.694-0.347,1.797-0.481,2.491c-1.492,4.131-2.937,8.288-5.149,12.114l0.02-0.01c-0.587,0.58-1.12,1.187-1.529,1.879
	c-0.366,0.621-0.783,1.219-1.331,1.688c-1.077,0.921-0.698,1.648,1.119,2.423c1.82,0.78,3.58,1.79,5.22,2.9
	c11,7.48,16.15,18.37,18.08,31.16C410.401,287.86,410.227,293.239,410.151,298.617z"/>
<path opacity="0.1" enable-background="new    " d="M219.689,207.442"/>
</svg>
