<?xml version="1.0" encoding="utf-8"?>
<!-- Generator: Adobe Illustrator 21.0.0, SVG Export Plug-In . SVG Version: 6.00 Build 0)  -->
<svg version="1.1" id="Layer_1" xmlns="http://www.w3.org/2000/svg" xmlns:xlink="http://www.w3.org/1999/xlink" x="0px" y="0px"
	 width="400px" height="400px" viewBox="0 0 400 400" enable-background="new 0 0 400 400" xml:space="preserve">
<g>
	<path fill="#FFFFFF" d="M384.407,90.875c2.792-15.669,2.729-31.779-6.948-43.964c-13.502-17.083-42.241-17.712-61.926-14.699
		c-16.017,2.451-70.185,26.349-88.62,83.567c32.659-2.481,49.775,2.354,46.632,38.31c-1.318,15.043-8.915,31.525-17.398,47.327
		c-9.8,18.213-28.168,53.982-52.256,28.201c-21.698-23.206-20.069-67.581-25.028-97.132c-2.762-16.582-5.684-37.243-11.118-54.296
		c-4.681-14.666-15.418-32.347-28.543-36.179c-14.101-4.143-31.531,2.324-41.77,8.356c-32.595,19.156-57.439,46.412-85.637,68.898
		v2.103c5.591,5.34,7.096,14.101,15.321,15.294c19.41,2.859,37.908-18.09,50.812,3.705c7.851,13.315,10.302,27.917,15.324,42.274
		c6.721,19.12,11.901,39.941,17.398,61.926c9.296,37.243,20.728,92.89,52.918,106.522c16.424,6.975,41.111-2.354,53.607-9.767
		c33.852-20.033,60.234-49.08,82.811-78.632C351.619,192.748,380.101,113.518,384.407,90.875z"/>
</g>
</svg>
