<?xml version="1.0" encoding="utf-8"?>
<!-- Generator: Adobe Illustrator 21.0.0, SVG Export Plug-In . SVG Version: 6.00 Build 0)  -->
<svg version="1.1" id="Layer_1" xmlns="http://www.w3.org/2000/svg" xmlns:xlink="http://www.w3.org/1999/xlink" x="0px" y="0px"
	 width="400px" height="400px" viewBox="0 0 400 400" enable-background="new 0 0 400 400" xml:space="preserve">
<g>
	<path fill-rule="evenodd" clip-rule="evenodd" fill="#FFFFFF" d="M260.285,158.659c0.924-5.185,0.903-10.516-2.299-14.548
		c-4.468-5.653-13.978-5.861-20.492-4.864c-5.3,0.811-23.225,8.719-29.325,27.653c10.807-0.821,16.471,0.779,15.431,12.677
		c-0.436,4.978-2.95,10.432-5.757,15.661c-3.243,6.027-9.321,17.863-17.292,9.332c-7.18-7.679-6.641-22.363-8.282-32.142
		c-0.914-5.487-1.881-12.324-3.679-17.967c-1.549-4.853-5.102-10.704-9.445-11.972c-4.666-1.371-10.434,0.769-13.822,2.765
		c-10.786,6.339-19.007,15.358-28.338,22.799v0.696c1.85,1.767,2.348,4.666,5.07,5.061c6.423,0.946,12.544-5.986,16.814,1.226
		c2.598,4.406,3.409,9.238,5.071,13.989c2.224,6.327,3.938,13.217,5.757,20.492c3.076,12.324,6.859,30.738,17.511,35.249
		c5.435,2.308,13.604-0.779,17.739-3.232c11.202-6.629,19.932-16.241,27.403-26.02C249.435,192.37,258.86,166.152,260.285,158.659z"
		/>
</g>
</svg>
